<mxfile host="app.diagrams.net" modified="2021-02-26T06:47:01.207Z" agent="5.0 (Windows NT 10.0; Win64; x64) AppleWebKit/537.36 (KHTML, like Gecko) Chrome/88.0.4324.190 Safari/537.36" etag="ttSyjAgrL3YG4jhYSP5Q" version="14.4.2" type="github" pages="2">
  <diagram id="uhPh4rTGfEyftbeCbDB8" name="Page-1">
    <mxGraphModel dx="2031" dy="1089" grid="1" gridSize="10" guides="1" tooltips="1" connect="1" arrows="1" fold="1" page="1" pageScale="1" pageWidth="827" pageHeight="1169" math="0" shadow="0">
      <root>
        <mxCell id="0" />
        <mxCell id="1" parent="0" />
        <mxCell id="eiJBfy4ihY83wv4v45AY-21" value="" style="rounded=0;whiteSpace=wrap;html=1;fillColor=#d5e8d4;fontStyle=1;strokeColor=#82B366;" vertex="1" parent="1">
          <mxGeometry x="10" y="60" width="1950" height="1400" as="geometry" />
        </mxCell>
        <mxCell id="eiJBfy4ihY83wv4v45AY-22" value="" style="whiteSpace=wrap;html=1;" vertex="1" parent="1">
          <mxGeometry x="294" y="180" width="256" height="540" as="geometry" />
        </mxCell>
        <mxCell id="eiJBfy4ihY83wv4v45AY-23" value="" style="whiteSpace=wrap;html=1;fillColor=#ffe6cc;strokeColor=#d79b00;" vertex="1" parent="1">
          <mxGeometry x="294" y="770" width="256" height="540" as="geometry" />
        </mxCell>
        <mxCell id="eiJBfy4ihY83wv4v45AY-24" value="" style="whiteSpace=wrap;html=1;fillColor=#ffe6cc;strokeColor=#d79b00;" vertex="1" parent="1">
          <mxGeometry x="294" y="180" width="256" height="540" as="geometry" />
        </mxCell>
        <mxCell id="eiJBfy4ihY83wv4v45AY-29" style="edgeStyle=orthogonalEdgeStyle;rounded=0;orthogonalLoop=1;jettySize=auto;html=1;exitX=1;exitY=0.25;exitDx=0;exitDy=0;entryX=0;entryY=0.25;entryDx=0;entryDy=0;fontSize=14;fontColor=#97D077;fillColor=#d5e8d4;strokeColor=#82b366;" edge="1" parent="1" source="eiJBfy4ihY83wv4v45AY-25" target="eiJBfy4ihY83wv4v45AY-26">
          <mxGeometry relative="1" as="geometry" />
        </mxCell>
        <mxCell id="eiJBfy4ihY83wv4v45AY-25" value="&lt;span style=&quot;color: rgb(151 , 208 , 119) ; font-size: 14px&quot;&gt;MQTT&lt;/span&gt;&lt;br style=&quot;color: rgb(151 , 208 , 119) ; font-size: 14px&quot;&gt;&lt;span style=&quot;color: rgb(151 , 208 , 119) ; font-size: 14px&quot;&gt;Broker&lt;/span&gt;" style="shape=ext;double=1;rounded=1;whiteSpace=wrap;html=1;fillColor=#ffe6cc;strokeColor=#d79b00;" vertex="1" parent="1">
          <mxGeometry x="640" y="230" width="120" height="80" as="geometry" />
        </mxCell>
        <mxCell id="eiJBfy4ihY83wv4v45AY-30" style="edgeStyle=orthogonalEdgeStyle;rounded=0;orthogonalLoop=1;jettySize=auto;html=1;exitX=0;exitY=0.5;exitDx=0;exitDy=0;entryX=1;entryY=0.5;entryDx=0;entryDy=0;fontSize=14;fontColor=#97D077;fillColor=#d5e8d4;strokeColor=#82b366;" edge="1" parent="1">
          <mxGeometry relative="1" as="geometry">
            <mxPoint x="820" y="282" as="sourcePoint" />
            <mxPoint x="760" y="282" as="targetPoint" />
          </mxGeometry>
        </mxCell>
        <mxCell id="eiJBfy4ihY83wv4v45AY-42" style="edgeStyle=none;rounded=0;orthogonalLoop=1;jettySize=auto;html=1;exitX=1;exitY=0.25;exitDx=0;exitDy=0;entryX=0.008;entryY=0.08;entryDx=0;entryDy=0;entryPerimeter=0;fontSize=22;fontColor=#97D077;fillColor=#d5e8d4;strokeColor=#82b366;" edge="1" parent="1" source="eiJBfy4ihY83wv4v45AY-26" target="eiJBfy4ihY83wv4v45AY-36">
          <mxGeometry relative="1" as="geometry" />
        </mxCell>
        <mxCell id="eiJBfy4ihY83wv4v45AY-26" value="&lt;font color=&quot;#97d077&quot;&gt;VMC&lt;/font&gt;" style="shape=ext;double=1;rounded=1;whiteSpace=wrap;html=1;fillColor=#ffe6cc;strokeColor=#d79b00;" vertex="1" parent="1">
          <mxGeometry x="820" y="230" width="120" height="80" as="geometry" />
        </mxCell>
        <mxCell id="eiJBfy4ihY83wv4v45AY-31" value="发布&lt;br&gt;订阅" style="text;html=1;resizable=0;autosize=1;align=center;verticalAlign=middle;points=[];fillColor=none;strokeColor=none;rounded=0;fontColor=#97D077;fontSize=14;" vertex="1" parent="1">
          <mxGeometry x="765" y="244" width="40" height="40" as="geometry" />
        </mxCell>
        <mxCell id="eiJBfy4ihY83wv4v45AY-33" value="资源&lt;br&gt;更新" style="text;html=1;resizable=0;autosize=1;align=center;verticalAlign=middle;points=[];fillColor=none;strokeColor=none;rounded=0;fontColor=#97D077;fontSize=14;" vertex="1" parent="1">
          <mxGeometry x="570" y="230" width="40" height="40" as="geometry" />
        </mxCell>
        <mxCell id="eiJBfy4ihY83wv4v45AY-43" style="edgeStyle=none;rounded=0;orthogonalLoop=1;jettySize=auto;html=1;exitX=-0.004;exitY=0.125;exitDx=0;exitDy=0;fontSize=22;fontColor=#97D077;entryX=1;entryY=0.75;entryDx=0;entryDy=0;exitPerimeter=0;fillColor=#d5e8d4;strokeColor=#82b366;" edge="1" parent="1">
          <mxGeometry relative="1" as="geometry">
            <mxPoint x="998.9760000000001" y="284.75" as="sourcePoint" />
            <mxPoint x="940" y="286" as="targetPoint" />
          </mxGeometry>
        </mxCell>
        <mxCell id="eiJBfy4ihY83wv4v45AY-36" value="" style="whiteSpace=wrap;html=1;fillColor=#ffe6cc;strokeColor=#d79b00;" vertex="1" parent="1">
          <mxGeometry x="1000" y="180" width="256" height="870" as="geometry" />
        </mxCell>
        <mxCell id="eiJBfy4ihY83wv4v45AY-38" value="数据源管理模块" style="text;html=1;resizable=0;autosize=1;align=center;verticalAlign=middle;points=[];fillColor=none;strokeColor=none;rounded=0;fontColor=#97D077;fontSize=22;fontStyle=1" vertex="1" parent="1">
          <mxGeometry x="1033" y="191" width="170" height="30" as="geometry" />
        </mxCell>
        <mxCell id="eiJBfy4ihY83wv4v45AY-44" value="发布&lt;br&gt;订阅" style="text;html=1;resizable=0;autosize=1;align=center;verticalAlign=middle;points=[];fillColor=none;strokeColor=none;rounded=0;fontColor=#97D077;fontSize=14;" vertex="1" parent="1">
          <mxGeometry x="950" y="248" width="40" height="40" as="geometry" />
        </mxCell>
        <mxCell id="eiJBfy4ihY83wv4v45AY-48" value="Voerka平台" style="text;html=1;resizable=0;autosize=1;align=center;verticalAlign=middle;points=[];fillColor=none;strokeColor=none;rounded=0;fontColor=#97D077;fontSize=22;fontStyle=1" vertex="1" parent="1">
          <mxGeometry x="330" y="191" width="130" height="30" as="geometry" />
        </mxCell>
        <mxCell id="eiJBfy4ihY83wv4v45AY-51" style="edgeStyle=none;rounded=0;orthogonalLoop=1;jettySize=auto;html=1;exitX=1;exitY=0.5;exitDx=0;exitDy=0;fontSize=18;fontColor=#97D077;strokeColor=#82B366;" edge="1" parent="1" source="eiJBfy4ihY83wv4v45AY-49" target="eiJBfy4ihY83wv4v45AY-25">
          <mxGeometry relative="1" as="geometry" />
        </mxCell>
        <object label="&lt;font color=&quot;#82b366&quot;&gt;资源管理模块&lt;/font&gt;" id="eiJBfy4ihY83wv4v45AY-49">
          <mxCell style="rounded=1;fontSize=18;textDirection=ltr;labelPosition=center;verticalLabelPosition=middle;align=center;verticalAlign=middle;html=1;whiteSpace=wrap;strokeColor=#82B366;" vertex="1" parent="1">
            <mxGeometry x="340" y="240" width="120" height="60" as="geometry" />
          </mxCell>
        </object>
        <object label="&lt;font color=&quot;#82b366&quot;&gt;监听数据源更新消息&lt;/font&gt;" id="eiJBfy4ihY83wv4v45AY-52">
          <mxCell style="rounded=1;fontSize=18;textDirection=ltr;labelPosition=center;verticalLabelPosition=middle;align=center;verticalAlign=middle;html=1;whiteSpace=wrap;strokeColor=#82B366;" vertex="1" parent="1">
            <mxGeometry x="1050" y="238" width="160" height="62" as="geometry" />
          </mxCell>
        </object>
      </root>
    </mxGraphModel>
  </diagram>
  <diagram id="h_ntZuVEFm0wFfuXOswc" name="Page-2">
    <mxGraphModel dx="1422" dy="762" grid="1" gridSize="10" guides="1" tooltips="1" connect="1" arrows="1" fold="1" page="1" pageScale="1" pageWidth="827" pageHeight="1169" math="0" shadow="0">
      <root>
        <mxCell id="h2O6Lp7osR206qZCvj9x-0" />
        <mxCell id="h2O6Lp7osR206qZCvj9x-1" parent="h2O6Lp7osR206qZCvj9x-0" />
      </root>
    </mxGraphModel>
  </diagram>
</mxfile>
